<svg width="548" height="119" viewBox="0 0 548 119" fill="none" xmlns="http://www.w3.org/2000/svg">
<path d="M86.1264 118H54.8064C57.2364 116.92 58.5864 114.49 58.5864 112.06C58.5864 111.52 58.5864 111.115 58.4514 110.575L46.7064 59.9501C45.8964 56.0351 42.2514 53.4701 38.2014 53.4701C37.2564 53.4701 36.3114 53.6051 35.3664 53.8751C31.9914 54.8201 29.2914 56.4401 27.1314 58.6001C21.8664 63.7301 21.5964 70.6151 21.5964 71.6951V71.8301H21.4614C22.2714 80.7401 27.6714 88.9751 32.2614 95.9951C35.6364 101.125 38.2014 105.175 38.3364 108.28V108.685C38.3364 115.705 31.8564 117.73 28.4814 118H0.536377C4.85638 116.515 7.96138 113.005 9.04138 108.82L19.5714 64.4051V64.2701L19.3014 65.2151L32.1264 11.0801C32.2614 10.2701 32.3964 9.46006 32.3964 8.78506C32.3964 4.33006 29.4264 2.44006 27.1314 1.76506H53.3214L78.2964 109.09C79.2414 113.275 82.2114 116.515 86.1264 118ZM35.9064 108.82V108.415C35.7714 105.85 33.2064 101.8 30.2364 97.2101C26.1864 91.1351 21.1914 83.4401 19.5714 75.0701L11.3364 109.765C11.2014 110.17 11.2014 110.44 11.2014 110.845C11.2014 113.41 13.3614 115.57 16.1964 115.57H28.4814C28.7514 115.57 35.9064 115.165 35.9064 108.82ZM25.3764 56.9801C29.8314 52.6601 36.1764 50.2301 44.4114 49.9601L35.0964 9.46006L23.2164 59.5451C23.8914 58.6001 24.5664 57.7901 25.3764 56.9801Z" fill="white"/>
<path d="M136.211 1.76506H161.861C155.786 3.52006 155.516 12.8351 155.516 14.7251V86.1401C155.516 104.095 140.936 118.81 122.981 118.81C105.026 118.81 90.5814 104.23 90.5814 86.2751V10.1351C90.5814 8.24506 89.9064 6.49006 88.9614 5.14006C88.0164 3.65506 86.6664 2.44006 84.9114 1.76506H114.881C111.506 3.11506 109.211 6.49006 109.211 10.1351V86.4101C109.211 95.7251 111.776 102.07 115.691 106.12C119.741 110.17 125.276 111.79 131.351 111.79C142.421 111.79 153.221 100.045 153.221 85.3301V61.1651C153.221 48.0701 143.501 36.4601 135.671 27.1451C131.081 21.7451 127.436 17.4251 126.626 13.7801C126.491 12.8351 126.356 11.8901 126.356 11.0801C126.356 7.43506 128.111 5.27506 129.731 3.92506C131.351 2.57506 133.781 1.76506 136.211 1.76506ZM153.221 49.2851V14.9951C153.221 8.92006 148.226 4.06006 142.151 4.06006H136.211C134.321 4.06006 132.431 4.60006 131.216 5.68006C129.596 7.03006 128.651 8.92006 128.651 11.2151C128.651 11.8901 128.786 12.5651 128.921 13.3751C129.596 16.3451 133.241 20.6651 137.426 25.6601C143.096 32.4101 149.711 40.2401 153.221 49.2851Z" fill="white"/>
<path d="M239.936 105.58C242.096 116.245 247.766 118 247.766 118H213.881C213.881 118 220.631 117.595 220.631 104.095C220.631 100.72 220.226 96.5351 219.146 91.2701C214.961 71.1551 197.681 56.9801 197.681 56.9801C195.251 54.6851 193.361 52.1201 191.741 49.2851V109.63C191.741 113.275 194.036 116.515 197.411 118H167.441C170.816 116.515 173.111 113.275 173.111 109.63V10.1351C173.111 6.49006 170.816 3.11506 167.441 1.76506H197.411C194.036 3.11506 191.741 6.49006 191.741 10.1351V14.9951C195.116 7.84005 204.161 1.76506 215.906 1.76506C237.641 1.76506 247.766 18.2351 247.766 33.0851C247.766 45.7751 238.856 64.1351 216.176 64.1351H214.961C213.881 64.0001 212.801 64.0001 211.856 63.8651C214.151 65.2151 216.176 66.7001 218.201 68.1851C237.101 82.4951 238.316 98.0201 239.936 105.58ZM191.741 24.7151V41.4551C191.741 49.2851 199.571 58.7351 207.266 58.7351C224.546 58.7351 229.001 44.0201 229.001 30.1151C229.001 19.7201 221.306 5.27506 209.966 5.27506C209.021 5.27506 208.076 5.27506 206.996 5.54506H206.861C197.951 7.57006 191.741 15.6701 191.741 24.7151Z" fill="white"/>
<path d="M315.668 0.820057V0.955055C346.043 3.38506 370.073 28.7651 370.073 59.8151C370.073 92.3501 343.613 118.81 310.943 118.81C278.408 118.81 251.948 92.3501 251.948 59.8151C251.948 27.1451 278.408 0.685059 310.943 0.685059C312.158 0.685059 313.238 0.820057 314.318 0.820057H315.668ZM270.713 59.8151C270.713 82.4951 280.163 102.07 293.798 111.115C298.793 114.49 304.598 116.11 310.403 116.11C315.263 116.11 320.123 115.03 324.443 112.735C327.413 111.25 329.843 109.225 331.598 106.525C333.892 102.88 334.838 99.2351 334.838 95.7251C334.838 87.8951 330.112 80.8751 326.062 75.7451C322.148 70.7501 316.748 66.0251 311.618 61.5701C300.143 51.3101 288.398 40.9151 288.398 25.1201C288.398 22.6901 288.668 20.2601 289.208 17.5601C290.018 13.7801 291.773 10.6751 294.203 8.24506C280.298 17.1551 270.713 36.8651 270.713 59.8151ZM334.838 105.58C344.828 95.1851 351.308 78.5801 351.308 59.8151C351.308 34.7051 339.698 13.3751 323.633 5.95006C320.123 4.33006 316.343 3.38506 312.428 3.38506C309.458 3.38506 306.353 4.06006 303.383 5.14006C297.578 7.30006 292.853 11.4851 291.368 18.1001C290.828 20.5301 290.558 22.6901 290.558 24.8501C290.558 39.8351 302.033 49.9601 313.238 59.8151C318.368 64.4051 323.768 69.1301 327.953 74.2601C332.273 79.7951 337.133 87.2201 337.133 95.7251C337.133 98.9651 336.458 102.205 334.838 105.58Z" fill="white"/>
<path d="M448.105 105.58C450.265 116.245 455.935 118 455.935 118H422.05C422.05 118 428.8 117.595 428.8 104.095C428.8 100.72 428.395 96.5351 427.315 91.2701C423.13 71.1551 405.85 56.9801 405.85 56.9801C403.42 54.6851 401.53 52.1201 399.91 49.2851V109.63C399.91 113.275 402.205 116.515 405.58 118H375.61C378.985 116.515 381.28 113.275 381.28 109.63V10.1351C381.28 6.49006 378.985 3.11506 375.61 1.76506H405.58C402.205 3.11506 399.91 6.49006 399.91 10.1351V14.9951C403.285 7.84005 412.33 1.76506 424.075 1.76506C445.81 1.76506 455.935 18.2351 455.935 33.0851C455.935 45.7751 447.025 64.1351 424.345 64.1351H423.13C422.05 64.0001 420.97 64.0001 420.025 63.8651C422.32 65.2151 424.345 66.7001 426.37 68.1851C445.27 82.4951 446.485 98.0201 448.105 105.58ZM399.91 24.7151V41.4551C399.91 49.2851 407.74 58.7351 415.435 58.7351C432.715 58.7351 437.17 44.0201 437.17 30.1151C437.17 19.7201 429.475 5.27506 418.135 5.27506C417.19 5.27506 416.245 5.27506 415.165 5.54506H415.03C406.12 7.57006 399.91 15.6701 399.91 24.7151Z" fill="white"/>
<path d="M547.025 118H515.705C518.135 116.92 519.485 114.49 519.485 112.06C519.485 111.52 519.485 111.115 519.35 110.575L507.605 59.9501C506.795 56.0351 503.15 53.4701 499.1 53.4701C498.155 53.4701 497.21 53.6051 496.265 53.8751C492.89 54.8201 490.19 56.4401 488.03 58.6001C482.765 63.7301 482.495 70.6151 482.495 71.6951V71.8301H482.36C483.17 80.7401 488.57 88.9751 493.16 95.9951C496.535 101.125 499.1 105.175 499.235 108.28V108.685C499.235 115.705 492.755 117.73 489.38 118H461.435C465.755 116.515 468.86 113.005 469.94 108.82L480.47 64.4051V64.2701L480.2 65.2151L493.025 11.0801C493.16 10.2701 493.295 9.46006 493.295 8.78506C493.295 4.33006 490.325 2.44006 488.03 1.76506H514.22L539.195 109.09C540.14 113.275 543.11 116.515 547.025 118ZM496.805 108.82V108.415C496.67 105.85 494.105 101.8 491.135 97.2101C487.085 91.1351 482.09 83.4401 480.47 75.0701L472.235 109.765C472.1 110.17 472.1 110.44 472.1 110.845C472.1 113.41 474.26 115.57 477.095 115.57H489.38C489.65 115.57 496.805 115.165 496.805 108.82ZM486.275 56.9801C490.73 52.6601 497.075 50.2301 505.31 49.9601L495.995 9.46006L484.115 59.5451C484.79 58.6001 485.465 57.7901 486.275 56.9801Z" fill="white"/>
</svg>
